<svg width="80" height="88" viewBox="0 0 80 88" fill="none" xmlns="http://www.w3.org/2000/svg">
<g clip-path="url(#clip0_26_484)">
<path d="M1 24.9563C1 23.4975 1.79413 22.1544 3.07232 21.4514L38.0723 2.20143C39.2727 1.54125 40.7273 1.54125 41.9277 2.20143L76.9277 21.4514C78.2059 22.1544 79 23.4975 79 24.9563V63.0435C79 64.5023 78.2059 65.8454 76.9277 66.5484L41.9277 85.7984C40.7273 86.4586 39.2727 86.4586 38.0723 85.7984L20.4819 76.1237L3.07233 66.5484C1.79413 65.8454 1 64.5023 1 63.0435V24.9563Z" stroke="#F9FAFB" stroke-width="2"/>
<path d="M31.4286 60.0002C29.535 60.0002 28 58.43 28 56.4931V31.9436C28 30.0067 29.535 28.4365 31.4286 28.4365H43.4286L52 37.2042V56.4931C52 58.43 50.465 60.0002 48.5714 60.0002H31.4286Z" stroke="#F9FAFB" stroke-width="2" stroke-linecap="round" stroke-linejoin="round"/>
<path d="M43.429 38.1818H52.0005L41.7148 28V36.4848C41.7148 37.4221 42.4823 38.1818 43.429 38.1818Z" fill="#F9FAFB"/>
<path d="M35 48.7996L40 53.8905M40 53.8905L45 48.7996M40 53.8905V43.7087" stroke="#F9FAFB" stroke-width="2" stroke-linecap="round" stroke-linejoin="round"/>
</g>
<defs>
<clipPath id="clip0_26_484">
<rect width="80" height="88" fill="white"/>
</clipPath>
</defs>
</svg>
