<svg width="136" height="75" viewBox="0 0 136 75" fill="none" xmlns="http://www.w3.org/2000/svg">
<path d="M107.078 51.6268C109.291 51.6268 111.088 51.3831 112.469 50.8958C115.088 49.9618 116.397 48.2258 116.397 45.6877C116.397 44.2055 115.748 43.0583 114.448 42.2461C113.149 41.4542 111.108 40.7537 108.326 40.1446L103.575 39.0786C98.9052 38.0228 95.6768 36.8756 93.89 35.637C90.8647 33.566 89.352 30.3274 89.352 25.9214C89.352 21.9011 90.8139 18.561 93.7378 15.9011C96.6616 13.2413 100.956 11.9113 106.621 11.9113C111.352 11.9113 115.382 13.1702 118.712 15.6879C122.062 18.1854 123.819 21.8199 123.981 26.5914H114.966C114.804 23.8909 113.626 21.9722 111.433 20.8351C109.971 20.0838 108.154 19.7082 105.981 19.7082C103.565 19.7082 101.636 20.1955 100.195 21.1701C98.7529 22.1447 98.0321 23.5051 98.0321 25.2513C98.0321 26.8554 98.7428 28.0533 100.164 28.8452C101.078 29.3731 103.027 29.9924 106.012 30.7031L113.748 32.5609C117.139 33.3731 119.697 34.4594 121.423 35.8198C124.103 37.9314 125.443 40.9872 125.443 44.9872C125.443 49.0887 123.87 52.4998 120.722 55.2206C117.595 57.9211 113.169 59.2714 107.443 59.2714C101.596 59.2714 96.9966 57.9414 93.6464 55.2815C90.2962 52.6014 88.621 48.9263 88.621 44.2563H97.5753C97.8595 46.307 98.4179 47.84 99.2504 48.8552C100.773 50.7029 103.382 51.6268 107.078 51.6268Z" fill="#B5D3F8"/>
<path d="M83.8143 57.0176C81.3372 58.5404 78.2915 59.3018 74.6773 59.3018C68.7281 59.3018 63.8551 57.2409 60.0581 53.1191C56.0988 48.977 54.1191 43.3121 54.1191 36.1243C54.1191 28.8554 56.1191 23.028 60.119 18.6422C64.119 14.2565 69.4083 12.0636 75.9869 12.0636C81.6925 12.0636 86.2711 13.5154 89.7229 16.4189C93.1949 19.3021 95.1848 22.9062 95.6924 27.231H86.464C85.7534 24.165 84.0173 22.0229 81.2559 20.8047C79.7128 20.1346 77.9971 19.7996 76.1088 19.7996C72.4946 19.7996 69.52 21.1701 67.185 23.9112C64.8703 26.632 63.7129 30.7335 63.7129 36.2157C63.7129 41.7385 64.9718 45.6471 67.4895 47.9415C70.0073 50.2359 72.8702 51.3831 76.0783 51.3831C79.2255 51.3831 81.8042 50.4796 83.8143 48.6725C85.8244 46.8451 87.063 44.4593 87.53 41.5152H77.1443V34.0228H95.8447V58.114H89.6315L88.6874 52.51C86.8803 54.642 85.2559 56.1445 83.8143 57.0176Z" fill="#6C9DD7"/>
<path d="M23.2306 58.1937H14.4896V13.3007H28.1341L36.2965 48.5999L44.398 13.3007H57.8903V58.1937H49.1492V27.8285C49.1492 26.9554 49.1594 25.7371 49.1797 24.1737C49.2 22.5899 49.2101 21.3717 49.2101 20.5189L40.7127 58.1937H31.6062L23.1697 20.5189C23.1697 21.3717 23.1799 22.5899 23.2002 24.1737C23.2205 25.7371 23.2306 26.9554 23.2306 27.8285V58.1937Z" fill="#004CA8"/>
<rect width="135" height="8.36382" transform="translate(0.871094 36.8553)" fill="white"/>
<path d="M10.263 43.4532V39.38H10.6179L12.48 42.5571H12.2938L14.1384 39.38H14.4934V43.4532H14.0802V40.0259H14.1791L12.48 42.9354H12.2763L10.5656 40.0259H10.6761V43.4532H10.263ZM17.6011 43.4882C17.2947 43.4882 17.0095 43.4377 16.7458 43.3369C16.4858 43.2321 16.2589 43.0867 16.0649 42.9004C15.8748 42.7104 15.7255 42.4912 15.6169 42.2429C15.5121 41.9907 15.4598 41.7153 15.4598 41.4166C15.4598 41.1179 15.5121 40.8444 15.6169 40.5961C15.7255 40.344 15.8748 40.1248 16.0649 39.9386C16.2589 39.7485 16.4858 39.603 16.7458 39.5022C17.0057 39.3974 17.2908 39.3451 17.6011 39.3451C17.9076 39.3451 18.1908 39.3974 18.4507 39.5022C18.7106 39.603 18.9356 39.7466 19.1257 39.9328C19.3197 40.119 19.469 40.3382 19.5738 40.5903C19.6824 40.8425 19.7367 41.1179 19.7367 41.4166C19.7367 41.7153 19.6824 41.9907 19.5738 42.2429C19.469 42.4951 19.3197 42.7142 19.1257 42.9004C18.9356 43.0867 18.7106 43.2321 18.4507 43.3369C18.1908 43.4377 17.9076 43.4882 17.6011 43.4882ZM17.6011 43.1041C17.8455 43.1041 18.0705 43.0634 18.2761 42.9819C18.4856 42.8966 18.666 42.7782 18.8173 42.627C18.9725 42.4718 19.0927 42.2933 19.1781 42.0916C19.2634 41.886 19.3061 41.661 19.3061 41.4166C19.3061 41.1722 19.2634 40.9492 19.1781 40.7474C19.0927 40.5418 18.9725 40.3634 18.8173 40.2121C18.666 40.0569 18.4856 39.9386 18.2761 39.8571C18.0705 39.7718 17.8455 39.7291 17.6011 39.7291C17.3567 39.7291 17.1298 39.7718 16.9203 39.8571C16.7108 39.9386 16.5285 40.0569 16.3733 40.2121C16.222 40.3634 16.1018 40.5418 16.0126 40.7474C15.9272 40.9492 15.8845 41.1722 15.8845 41.4166C15.8845 41.6571 15.9272 41.8802 16.0126 42.0858C16.1018 42.2914 16.222 42.4718 16.3733 42.627C16.5285 42.7782 16.7108 42.8966 16.9203 42.9819C17.1298 43.0634 17.3567 43.1041 17.6011 43.1041ZM20.7019 43.4532V39.38H22.3603C22.7948 39.38 23.1749 39.4673 23.5008 39.6418C23.8305 39.8125 24.0866 40.0511 24.2689 40.3576C24.4512 40.664 24.5424 41.017 24.5424 41.4166C24.5424 41.8162 24.4512 42.1692 24.2689 42.4757C24.0866 42.7821 23.8305 43.0226 23.5008 43.1972C23.1749 43.3679 22.7948 43.4532 22.3603 43.4532H20.7019ZM21.1325 43.0808H22.337C22.6978 43.0808 23.0101 43.011 23.2739 42.8714C23.5415 42.7278 23.7491 42.5319 23.8965 42.2836C24.0439 42.0315 24.1176 41.7425 24.1176 41.4166C24.1176 41.0869 24.0439 40.7979 23.8965 40.5496C23.7491 40.3013 23.5415 40.1073 23.2739 39.9677C23.0101 39.8242 22.6978 39.7524 22.337 39.7524H21.1325V43.0808ZM25.8934 41.2013H28.0464V41.5679H25.8934V41.2013ZM25.9399 43.0808H28.3897V43.4532H25.5093V39.38H28.3024V39.7524H25.9399V43.0808ZM29.4019 43.4532V39.38H30.9265C31.2717 39.38 31.5685 39.4362 31.8168 39.5487C32.0651 39.6573 32.2551 39.8164 32.387 40.0259C32.5228 40.2315 32.5907 40.4817 32.5907 40.7765C32.5907 41.0636 32.5228 41.3119 32.387 41.5214C32.2551 41.727 32.0651 41.886 31.8168 41.9985C31.5685 42.1071 31.2717 42.1614 30.9265 42.1614H29.6405L29.8325 41.9636V43.4532H29.4019ZM32.1834 43.4532L31.136 41.9752H31.6015L32.6547 43.4532H32.1834ZM29.8325 41.9985L29.6405 41.7948H30.9148C31.3222 41.7948 31.6306 41.7056 31.8401 41.5272C32.0534 41.3487 32.1601 41.0985 32.1601 40.7765C32.1601 40.4507 32.0534 40.1985 31.8401 40.0201C31.6306 39.8416 31.3222 39.7524 30.9148 39.7524H29.6405L29.8325 39.5487V41.9985ZM33.607 43.4532V39.38H33.962L36.7725 42.9179H36.5863V39.38H37.0111V43.4532H36.6562L33.8514 39.9153H34.0376V43.4532H33.607ZM41.65 43.4882C41.3396 43.4882 41.0526 43.4377 40.7888 43.3369C40.5289 43.2321 40.3019 43.0867 40.1079 42.9004C39.9179 42.7142 39.7685 42.4951 39.6599 42.2429C39.5551 41.9907 39.5028 41.7153 39.5028 41.4166C39.5028 41.1179 39.5551 40.8425 39.6599 40.5903C39.7685 40.3382 39.9198 40.119 40.1138 39.9328C40.3077 39.7466 40.5347 39.603 40.7946 39.5022C41.0584 39.3974 41.3454 39.3451 41.6558 39.3451C41.9661 39.3451 42.2493 39.3935 42.5054 39.4905C42.7653 39.5875 42.9864 39.7349 43.1687 39.9328L42.9011 40.2063C42.7304 40.0356 42.5422 39.9134 42.3366 39.8397C42.131 39.766 41.9099 39.7291 41.6733 39.7291C41.4211 39.7291 41.1883 39.7718 40.975 39.8571C40.7655 39.9386 40.5812 40.0569 40.4222 40.2121C40.267 40.3634 40.1448 40.5418 40.0556 40.7474C39.9702 40.9492 39.9276 41.1722 39.9276 41.4166C39.9276 41.6571 39.9702 41.8802 40.0556 42.0858C40.1448 42.2914 40.267 42.4718 40.4222 42.627C40.5812 42.7782 40.7655 42.8966 40.975 42.9819C41.1883 43.0634 41.4192 43.1041 41.6674 43.1041C41.9002 43.1041 42.1194 43.0692 42.325 42.9994C42.5345 42.9295 42.7265 42.8112 42.9011 42.6444L43.1454 42.9703C42.9515 43.141 42.7245 43.2709 42.4646 43.3601C42.2047 43.4455 41.9332 43.4882 41.65 43.4882ZM42.7323 42.9179V41.4166H43.1454V42.9703L42.7323 42.9179ZM44.7482 41.2013H46.9012V41.5679H44.7482V41.2013ZM44.7948 43.0808H47.2445V43.4532H44.3642V39.38H47.1573V39.7524H44.7948V43.0808ZM48.2567 43.4532V39.38H48.6117L51.4222 42.9179H51.236V39.38H51.6608V43.4532H51.3059L48.5011 39.9153H48.6873V43.4532H48.2567ZM53.3744 41.2013H55.5274V41.5679H53.3744V41.2013ZM53.4209 43.0808H55.8707V43.4532H52.9903V39.38H55.7834V39.7524H53.4209V43.0808ZM56.8829 43.4532V39.38H58.4075C58.7527 39.38 59.0495 39.4362 59.2978 39.5487C59.546 39.6573 59.7361 39.8164 59.868 40.0259C60.0038 40.2315 60.0717 40.4817 60.0717 40.7765C60.0717 41.0636 60.0038 41.3119 59.868 41.5214C59.7361 41.727 59.546 41.886 59.2978 41.9985C59.0495 42.1071 58.7527 42.1614 58.4075 42.1614H57.1215L57.3135 41.9636V43.4532H56.8829ZM59.6644 43.4532L58.6169 41.9752H59.0825L60.1357 43.4532H59.6644ZM57.3135 41.9985L57.1215 41.7948H58.3958C58.8031 41.7948 59.1116 41.7056 59.321 41.5272C59.5344 41.3487 59.6411 41.0985 59.6411 40.7765C59.6411 40.4507 59.5344 40.1985 59.321 40.0201C59.1116 39.8416 58.8031 39.7524 58.3958 39.7524H57.1215L57.3135 39.5487V41.9985ZM60.4363 43.4532L62.2983 39.38H62.7231L64.5852 43.4532H64.1313L62.4205 39.6302H62.5951L60.8843 43.4532H60.4363ZM61.1695 42.3651L61.2975 42.016H63.6658L63.7938 42.3651H61.1695ZM65.8458 43.4532V39.7524H64.4144V39.38H67.7079V39.7524H66.2764V43.4532H65.8458ZM68.3958 43.4532V39.38H68.8264V43.4532H68.3958ZM71.9323 43.4882C71.6259 43.4882 71.3407 43.4377 71.0769 43.3369C70.817 43.2321 70.5901 43.0867 70.3961 42.9004C70.206 42.7104 70.0567 42.4912 69.9481 42.2429C69.8433 41.9907 69.7909 41.7153 69.7909 41.4166C69.7909 41.1179 69.8433 40.8444 69.9481 40.5961C70.0567 40.344 70.206 40.1248 70.3961 39.9386C70.5901 39.7485 70.817 39.603 71.0769 39.5022C71.3369 39.3974 71.622 39.3451 71.9323 39.3451C72.2388 39.3451 72.522 39.3974 72.7819 39.5022C73.0418 39.603 73.2668 39.7466 73.4569 39.9328C73.6509 40.119 73.8002 40.3382 73.905 40.5903C74.0136 40.8425 74.0679 41.1179 74.0679 41.4166C74.0679 41.7153 74.0136 41.9907 73.905 42.2429C73.8002 42.4951 73.6509 42.7142 73.4569 42.9004C73.2668 43.0867 73.0418 43.2321 72.7819 43.3369C72.522 43.4377 72.2388 43.4882 71.9323 43.4882ZM71.9323 43.1041C72.1767 43.1041 72.4017 43.0634 72.6073 42.9819C72.8168 42.8966 72.9972 42.7782 73.1485 42.627C73.3037 42.4718 73.4239 42.2933 73.5093 42.0916C73.5946 41.886 73.6373 41.661 73.6373 41.4166C73.6373 41.1722 73.5946 40.9492 73.5093 40.7474C73.4239 40.5418 73.3037 40.3634 73.1485 40.2121C72.9972 40.0569 72.8168 39.9386 72.6073 39.8571C72.4017 39.7718 72.1767 39.7291 71.9323 39.7291C71.6879 39.7291 71.461 39.7718 71.2515 39.8571C71.042 39.9386 70.8597 40.0569 70.7045 40.2121C70.5532 40.3634 70.433 40.5418 70.3437 40.7474C70.2584 40.9492 70.2157 41.1722 70.2157 41.4166C70.2157 41.6571 70.2584 41.8802 70.3437 42.0858C70.433 42.2914 70.5532 42.4718 70.7045 42.627C70.8597 42.7782 71.042 42.8966 71.2515 42.9819C71.461 43.0634 71.6879 43.1041 71.9323 43.1041ZM75.0331 43.4532V39.38H75.388L78.1986 42.9179H78.0124V39.38H78.4372V43.4532H78.0822L75.2775 39.9153H75.4637V43.4532H75.0331ZM82.4127 43.4882C82.1101 43.4882 81.8191 43.4397 81.5398 43.3427C81.2644 43.2418 81.051 43.1138 80.8997 42.9586L81.0685 42.627C81.212 42.7666 81.404 42.8849 81.6445 42.9819C81.8889 43.075 82.145 43.1216 82.4127 43.1216C82.6687 43.1216 82.8762 43.0905 83.0353 43.0285C83.1982 42.9625 83.3165 42.8752 83.3902 42.7666C83.4678 42.658 83.5066 42.5377 83.5066 42.4058C83.5066 42.2468 83.4601 42.1188 83.367 42.0218C83.2777 41.9248 83.1594 41.8492 83.012 41.7948C82.8646 41.7367 82.7017 41.6862 82.5232 41.6435C82.3448 41.6009 82.1663 41.5563 81.9879 41.5097C81.8094 41.4593 81.6445 41.3933 81.4933 41.3119C81.3458 41.2304 81.2256 41.1237 81.1325 40.9918C81.0433 40.856 80.9986 40.6795 80.9986 40.4623C80.9986 40.2606 81.051 40.0763 81.1558 39.9095C81.2644 39.7388 81.4292 39.603 81.6504 39.5022C81.8715 39.3974 82.1547 39.3451 82.4999 39.3451C82.7288 39.3451 82.9558 39.378 83.1808 39.444C83.4058 39.506 83.5997 39.5933 83.7627 39.7058L83.6172 40.0492C83.4426 39.9328 83.2564 39.8474 83.0586 39.7931C82.8646 39.7388 82.6764 39.7117 82.4941 39.7117C82.2497 39.7117 82.048 39.7446 81.8889 39.8106C81.7299 39.8765 81.6116 39.9657 81.534 40.0782C81.4603 40.1869 81.4234 40.311 81.4234 40.4507C81.4234 40.6097 81.468 40.7377 81.5573 40.8347C81.6504 40.9317 81.7706 41.0073 81.918 41.0617C82.0693 41.116 82.2342 41.1645 82.4127 41.2071C82.5911 41.2498 82.7676 41.2964 82.9422 41.3468C83.1206 41.3972 83.2836 41.4632 83.431 41.5446C83.5823 41.6222 83.7025 41.727 83.7917 41.8589C83.8848 41.9907 83.9314 42.1634 83.9314 42.3767C83.9314 42.5746 83.8771 42.7589 83.7685 42.9295C83.6598 43.0964 83.493 43.2321 83.268 43.3369C83.0469 43.4377 82.7618 43.4882 82.4127 43.4882ZM85.6042 43.4532V39.7524H84.1727V39.38H87.4662V39.7524H86.0348V43.4532H85.6042ZM88.1541 43.4532V39.38H89.6787C90.024 39.38 90.3207 39.4362 90.569 39.5487C90.8173 39.6573 91.0074 39.8164 91.1393 40.0259C91.2751 40.2315 91.3429 40.4817 91.3429 40.7765C91.3429 41.0636 91.2751 41.3119 91.1393 41.5214C91.0074 41.727 90.8173 41.886 90.569 41.9985C90.3207 42.1071 90.024 42.1614 89.6787 42.1614H88.3927L88.5847 41.9636V43.4532H88.1541ZM90.9356 43.4532L89.8882 41.9752H90.3537L91.4069 43.4532H90.9356ZM88.5847 41.9985L88.3927 41.7948H89.6671C90.0744 41.7948 90.3828 41.7056 90.5923 41.5272C90.8057 41.3487 90.9123 41.0985 90.9123 40.7765C90.9123 40.4507 90.8057 40.1985 90.5923 40.0201C90.3828 39.8416 90.0744 39.7524 89.6671 39.7524H88.3927L88.5847 39.5487V41.9985ZM92.7433 41.2013H94.8963V41.5679H92.7433V41.2013ZM92.7899 43.0808H95.2397V43.4532H92.3593V39.38H95.1524V39.7524H92.7899V43.0808ZM95.6001 43.4532L97.4622 39.38H97.887L99.749 43.4532H99.2952L97.5844 39.6302H97.7589L96.0482 43.4532H95.6001ZM96.3333 42.3651L96.4613 42.016H98.8296L98.9577 42.3651H96.3333ZM100.423 43.4532V39.38H100.778L102.64 42.5571H102.454L104.298 39.38H104.653V43.4532H104.24V40.0259H104.339L102.64 42.9354H102.436L100.725 40.0259H100.836V43.4532H100.423ZM105.98 43.4532V39.38H106.411V43.4532H105.98ZM107.736 43.4532V39.38H108.091L110.902 42.9179H110.716V39.38H111.14V43.4532H110.785L107.981 39.9153H108.167V43.4532H107.736ZM114.256 43.4882C113.946 43.4882 113.659 43.4377 113.395 43.3369C113.135 43.2321 112.908 43.0867 112.714 42.9004C112.524 42.7142 112.375 42.4951 112.266 42.2429C112.162 41.9907 112.109 41.7153 112.109 41.4166C112.109 41.1179 112.162 40.8425 112.266 40.5903C112.375 40.3382 112.526 40.119 112.72 39.9328C112.914 39.7466 113.141 39.603 113.401 39.5022C113.665 39.3974 113.952 39.3451 114.262 39.3451C114.573 39.3451 114.856 39.3935 115.112 39.4905C115.372 39.5875 115.593 39.7349 115.775 39.9328L115.507 40.2063C115.337 40.0356 115.149 39.9134 114.943 39.8397C114.737 39.766 114.516 39.7291 114.28 39.7291C114.027 39.7291 113.795 39.7718 113.581 39.8571C113.372 39.9386 113.188 40.0569 113.029 40.2121C112.873 40.3634 112.751 40.5418 112.662 40.7474C112.577 40.9492 112.534 41.1722 112.534 41.4166C112.534 41.6571 112.577 41.8802 112.662 42.0858C112.751 42.2914 112.873 42.4718 113.029 42.627C113.188 42.7782 113.372 42.8966 113.581 42.9819C113.795 43.0634 114.026 43.1041 114.274 43.1041C114.507 43.1041 114.726 43.0692 114.931 42.9994C115.141 42.9295 115.333 42.8112 115.507 42.6444L115.752 42.9703C115.558 43.141 115.331 43.2709 115.071 43.3601C114.811 43.4455 114.54 43.4882 114.256 43.4882ZM115.339 42.9179V41.4166H115.752V42.9703L115.339 42.9179ZM118.493 43.4532V39.38H118.924V43.0808H121.205V43.4532H118.493ZM121.92 43.4532V39.38H122.351V43.0808H124.632V43.4532H121.92ZM127.036 43.4882C126.73 43.4882 126.446 43.4377 126.187 43.3369C125.927 43.2321 125.702 43.0867 125.512 42.9004C125.321 42.7142 125.172 42.4951 125.063 42.2429C124.959 41.9907 124.906 41.7153 124.906 41.4166C124.906 41.1179 124.959 40.8425 125.063 40.5903C125.172 40.3382 125.321 40.119 125.512 39.9328C125.705 39.7466 125.932 39.603 126.192 39.5022C126.452 39.3974 126.735 39.3451 127.042 39.3451C127.337 39.3451 127.614 39.3955 127.874 39.4964C128.134 39.5933 128.353 39.7407 128.532 39.9386L128.258 40.2121C128.091 40.0414 127.907 39.9192 127.705 39.8455C127.504 39.7679 127.286 39.7291 127.054 39.7291C126.809 39.7291 126.582 39.7718 126.373 39.8571C126.163 39.9386 125.981 40.0569 125.826 40.2121C125.671 40.3634 125.548 40.5418 125.459 40.7474C125.374 40.9492 125.331 41.1722 125.331 41.4166C125.331 41.661 125.374 41.886 125.459 42.0916C125.548 42.2933 125.671 42.4718 125.826 42.627C125.981 42.7782 126.163 42.8966 126.373 42.9819C126.582 43.0634 126.809 43.1041 127.054 43.1041C127.286 43.1041 127.504 43.0653 127.705 42.9877C127.907 42.9101 128.091 42.786 128.258 42.6153L128.532 42.8888C128.353 43.0867 128.134 43.236 127.874 43.3369C127.614 43.4377 127.335 43.4882 127.036 43.4882Z" fill="#004CA8"/>
</svg>
